<?xml version="1.0" encoding="utf-8"?>
<!-- Generator: Adobe Illustrator 16.0.0, SVG Export Plug-In . SVG Version: 6.00 Build 0)  -->
<!DOCTYPE svg PUBLIC "-//W3C//DTD SVG 1.1//EN" "http://www.w3.org/Graphics/SVG/1.1/DTD/svg11.dtd">
<svg version="1.1" id="Layer_1" xmlns="http://www.w3.org/2000/svg" xmlns:xlink="http://www.w3.org/1999/xlink" x="0px" y="0px"
	 width="200px" height="200px" viewBox="0 0 200 200" enable-background="new 0 0 200 200" xml:space="preserve">
<g id="Background">
	<rect fill="#660000" width="200" height="200"/>
	<path fill="none" d="M75.616,138.91c48.631,0,48.631-78.158,48.631-78.158"/>
</g>
<g id="Overlay">
	<rect x="11" y="10" fill="#DC3522" width="180" height="180"/>
	<g id="Top_bottom_gradients">
		
			<linearGradient id="SVGID_1_" gradientUnits="userSpaceOnUse" x1="307" y1="-284.9995" x2="307" y2="-233.9995" gradientTransform="matrix(1 0 0 -1 -206 -95)">
			<stop  offset="0" style="stop-color:#6D0B0B;stop-opacity:0.5"/>
			<stop  offset="1" style="stop-color:#6D0B0B;stop-opacity:0"/>
		</linearGradient>
		<rect x="11" y="139" fill="url(#SVGID_1_)" width="180" height="51"/>
		
			<linearGradient id="SVGID_2_" gradientUnits="userSpaceOnUse" x1="307" y1="-159" x2="307" y2="-105" gradientTransform="matrix(1 0 0 -1 -206 -95)">
			<stop  offset="0" style="stop-color:#FFB400;stop-opacity:0"/>
			<stop  offset="0.159" style="stop-color:#FFB605;stop-opacity:0.0556"/>
			<stop  offset="0.357" style="stop-color:#FFBA15;stop-opacity:0.125"/>
			<stop  offset="0.5758" style="stop-color:#FFC12E;stop-opacity:0.2015"/>
			<stop  offset="0.8077" style="stop-color:#FFCC51;stop-opacity:0.2827"/>
			<stop  offset="1" style="stop-color:#FFD674;stop-opacity:0.35"/>
		</linearGradient>
		<rect x="11" y="10" fill="url(#SVGID_2_)" width="180" height="54"/>
	</g>
</g>
<g id="Swirls">
	<g id="Right_swirl">
		<g>
			<defs>
				<path id="SVGID_3_" d="M11.696,161.637c0,0-10.75-75.818,43.672-75.818c54.422,0,41.657,0,88.688,0
					c47.03,0,47.03-75.818,47.03-75.818h96.08v186.008h-296.3L11.696,161.637z"/>
			</defs>
			<clipPath id="SVGID_4_">
				<use xlink:href="#SVGID_3_"  overflow="visible"/>
			</clipPath>
			
				<linearGradient id="SVGID_5_" gradientUnits="userSpaceOnUse" x1="337" y1="348" x2="337" y2="402" gradientTransform="matrix(1.192488e-08 1 1 -1.192488e-08 -211 -237)">
				<stop  offset="0" style="stop-color:#FFB400;stop-opacity:0"/>
				<stop  offset="0.159" style="stop-color:#FFB605;stop-opacity:0.0556"/>
				<stop  offset="0.357" style="stop-color:#FFBA15;stop-opacity:0.125"/>
				<stop  offset="0.5758" style="stop-color:#FFC12E;stop-opacity:0.2015"/>
				<stop  offset="0.8077" style="stop-color:#FFCC51;stop-opacity:0.2827"/>
				<stop  offset="1" style="stop-color:#FFD674;stop-opacity:0.35"/>
			</linearGradient>
			<rect x="137" y="10" clip-path="url(#SVGID_4_)" fill="url(#SVGID_5_)" width="54" height="180"/>
		</g>
	</g>
	<g id="Left_swirl">
		<g>
			<defs>
				<path id="SVGID_6_" d="M11.696,161.637c0,0-10.75-75.818,43.672-75.818c54.422,0,41.657,0,88.688,0
					c47.03,0,47.03-75.818,47.03-75.818h96.08v186.008h-296.3L11.696,161.637z"/>
			</defs>
			<clipPath id="SVGID_7_">
				<use xlink:href="#SVGID_6_"  overflow="visible"/>
			</clipPath>
			
				<linearGradient id="SVGID_8_" gradientUnits="userSpaceOnUse" x1="365.5" y1="224.5" x2="365.5" y2="275.5" gradientTransform="matrix(1.192488e-08 1 1 -1.192488e-08 -213.5 -265.5)">
				<stop  offset="0" style="stop-color:#6D0B0B;stop-opacity:0.5"/>
				<stop  offset="1" style="stop-color:#6D0B0B;stop-opacity:0"/>
			</linearGradient>
			<rect x="11" y="10" clip-path="url(#SVGID_7_)" fill="url(#SVGID_8_)" width="51" height="180"/>
		</g>
	</g>
</g>
<g id="Layer_5">
	<g enable-background="new    ">
		<path fill="#FFFFFF" d="M38.146,45.104h22.364v64.684c0,7.234,0.854,12.518,2.563,15.849c2.657,5.902,8.448,8.854,17.372,8.854
			c8.876,0,14.642-2.951,17.3-8.854c1.708-3.331,2.563-8.614,2.563-15.849V45.104h22.365v64.735c0,11.194-1.736,19.911-5.207,26.15
			c-6.468,11.433-18.808,17.148-37.021,17.148s-30.578-5.716-37.092-17.148c-3.472-6.239-5.207-14.956-5.207-26.15V45.104z"/>
		<path fill="#FFFFFF" d="M163.901,150.424h-21.864V45.104h21.864V150.424z"/>
	</g>
</g>
</svg>
